<?xml version="1.0" encoding="utf-8"?>
<!-- Generator: Adobe Illustrator 21.1.0, SVG Export Plug-In . SVG Version: 6.00 Build 0)  -->
<svg version="1.1" id="Capa_1" xmlns="http://www.w3.org/2000/svg" xmlns:xlink="http://www.w3.org/1999/xlink" x="0px" y="0px"
	 viewBox="0 0 488 488" style="enable-background:new 0 0 488 488;" xml:space="preserve">
<style type="text/css">
	.st0{fill:#EE3840;}
</style>
<path class="st0" d="M459.7,198.9l-57.2-15.7l-34.3-45c-8-10.5-20.4-16.5-33.6-16.5H221.3c-14.5-0.1-28,7.4-35.7,19.7L159,183.8
	l-30.1,13.8c-11.9,5.5-19.6,17.4-19.5,30.6v25c0,18.5,14.8,33.8,33.3,33.8h9.2c1.6,6.2,4.5,11.8,8.5,16.6H2.8v15.4h190.3
	c0.1,0,0.2,0,0.3,0c18.9-0.1,36-12.8,41-32h129.1c3.8,15,15.6,26.7,30.6,30.6c22.8,5.9,46.1-7.8,52-30.6h4.9
	c18.5,0,33.3-15.3,33.3-33.8v-21.9C484.3,216.1,474.3,202.9,459.7,198.9z M193.2,303.4c-15.1-0.1-27.4-12.3-27.3-27.3
	c0-15.1,12.2-27.3,27.3-27.3s27.3,12.2,27.3,27.3C220.5,291.1,208.2,303.4,193.2,303.4z M404.9,303.4c-15.1-0.1-27.4-12.3-27.3-27.3
	c0-15.1,12.2-27.3,27.3-27.3c15.1,0,27.3,12.2,27.3,27.3C432.2,291.1,419.9,303.4,404.9,303.4z M469,253.1
	c0,10.1-7.8,18.4-17.9,18.4h-3.8c-2.2-19.8-17.8-35.6-37.7-37.7c-23.4-2.6-44.6,14.3-47.1,37.7H235.6c-2.2-19.8-17.8-35.6-37.7-37.7
	c-23.4-2.6-44.6,14.3-47.1,37.7h-8.1c-10.1,0-17.9-8.4-17.9-18.4h0.1v-25c-0.1-7.1,4.1-13.6,10.5-16.6l32.1-14.7
	c1.3-0.6,2.5-1.6,3.3-2.9l27.8-44.4c4.8-7.8,13.5-12.5,22.8-12.5h113.3c8.4,0,16.3,3.9,21.4,10.5l35.8,47c1,1.4,2.5,2.3,4.1,2.8
	l59.9,16.4c7.9,2.2,13.4,9.4,13.3,17.6V253.1z"/>
<path class="st0" d="M193.4,318.9L193.4,318.9l-0.3,0C193.3,318.9,193.3,318.9,193.4,318.9z"/>
</svg>
