<?xml version="1.0" encoding="utf-8"?>
<!-- Generator: Adobe Illustrator 21.1.0, SVG Export Plug-In . SVG Version: 6.00 Build 0)  -->
<svg version="1.1" id="Capa_1" xmlns="http://www.w3.org/2000/svg" xmlns:xlink="http://www.w3.org/1999/xlink" x="0px" y="0px"
	 viewBox="0 0 488 488" style="enable-background:new 0 0 488 488;" xml:space="preserve">
<style type="text/css">
	.st0{fill:#35B3A0;}
</style>
<g>
	<g>
		<path class="st0" d="M334.3,303.5c3.9-4.7,6.9-10.3,8.5-16.6h4.9c18.5,0,33.3-15.3,33.3-33.8v-21.9c0-15.1-10.1-28.4-24.6-32.4
			l-57.2-15.7l-34.4-44.9c-8-10.5-20.4-16.5-33.6-16.5H118c-14.5-0.1-28,7.4-35.7,19.7l-26.6,42.4l-30.1,13.8
			C13.6,203,5.9,215,6,228.1v25c0,18.5,14.8,33.8,33.3,33.8h9.2c3.8,15,15.6,26.7,30.6,30.6c22.8,5.9,46.1-7.8,52-30.6h129.1
			c3.8,15,15.6,26.7,30.6,30.6c3.6,0.9,7.2,1.4,10.7,1.4v0h185.2v-15.4H334.3z M89.8,303.4c-15.1-0.1-27.4-12.3-27.3-27.3
			c0-15.1,12.2-27.3,27.3-27.3s27.3,12.2,27.3,27.3C117.1,291.1,104.9,303.4,89.8,303.4z M301.5,303.4
			c-15.1-0.1-27.4-12.3-27.3-27.3c0-15.1,12.2-27.3,27.3-27.3c15.1,0,27.3,12.2,27.3,27.3C328.8,291.1,316.6,303.4,301.5,303.4z
			 M306.2,233.8c-23.4-2.6-44.6,14.3-47.1,37.7H132.3c-2.2-19.8-17.8-35.6-37.7-37.7c-23.4-2.6-44.6,14.3-47.1,37.7h-8.2
			c-10.1,0-17.9-8.4-17.9-18.4h0.1v-25c-0.1-7.1,4.1-13.6,10.5-16.6l32.1-14.7c1.3-0.6,2.5-1.6,3.3-2.9l27.8-44.4
			c4.8-7.8,13.5-12.5,22.7-12.4h113.3c8.4,0,16.3,3.8,21.4,10.4l35.8,47c1,1.4,2.5,2.3,4.1,2.8l59.9,16.4
			c7.9,2.2,13.4,9.4,13.3,17.6v21.9c0,10.1-7.8,18.4-17.9,18.4H344C341.8,251.7,326.1,236,306.2,233.8z"/>
	</g>
</g>
</svg>
